<?xml version="1.0" standalone="no"?>
<!DOCTYPE svg PUBLIC "-//W3C//DTD SVG 20010904//EN"
 "http://www.w3.org/TR/2001/REC-SVG-20010904/DTD/svg10.dtd">
<svg version="1.0" xmlns="http://www.w3.org/2000/svg"
 width="29.000000pt" height="20.000000pt" viewBox="0 0 57.000000 39.000000"
 preserveAspectRatio="xMidYMid meet">
<metadata>
Created by potrace 1.13, written by Peter Selinger 2001-2015
</metadata>
<g transform="translate(0.000000,39.000000) scale(0.100000,-0.100000)"
fill="#2458ad" stroke="none">
<path d="M0 195 l0 -195 285 0 285 0 0 195 0 195 -285 0 -285 0 0 -195z m205
55 c14 -27 30 -50 35 -50 13 0 13 41 0 74 -9 25 -8 26 30 26 l40 0 0 -47 c0
-45 1 -46 19 -29 11 10 25 31 31 47 10 24 18 29 46 29 19 0 34 -3 34 -7 0 -5
-11 -28 -25 -51 l-25 -44 30 -36 c17 -20 30 -40 30 -44 0 -5 -15 -8 -33 -8
-23 0 -41 8 -57 25 -31 33 -50 32 -50 -1 0 -25 -2 -26 -41 -21 -23 3 -52 16
-66 29 -30 28 -69 93 -78 131 -7 25 -5 27 24 27 27 0 34 -6 56 -50z"/>
</g>
</svg>
